<svg width="20" height="20" viewBox="0 0 20 20" fill="none" xmlns="http://www.w3.org/2000/svg">
<path d="M19.5563 0.458833C19.2729 0.174794 18.8882 0.0151687 18.4869 0.0151687C18.0857 0.0151687 17.7009 0.174794 17.4175 0.458833L10 7.86118L2.58248 0.443664C2.29908 0.159625 1.91432 0 1.51308 0C1.11184 0 0.727086 0.159625 0.443686 0.443664C-0.147895 1.03525 -0.147895 1.99088 0.443686 2.58246L7.8612 9.99998L0.443686 17.4175C-0.147895 18.0091 -0.147895 18.9647 0.443686 19.5563C1.03527 20.1479 1.9909 20.1479 2.58248 19.5563L10 12.1388L17.4175 19.5563C18.0091 20.1479 18.9647 20.1479 19.5563 19.5563C20.1479 18.9647 20.1479 18.0091 19.5563 17.4175L12.1388 9.99998L19.5563 2.58246C20.1327 2.00605 20.1327 1.03525 19.5563 0.458833Z" fill="black"/>
</svg>
