<svg width="57" height="15" viewBox="0 0 57 15" fill="none" xmlns="http://www.w3.org/2000/svg">
<path d="M11.1193 5H9.53409C9.44034 4.54403 9.27628 4.14347 9.0419 3.7983C8.81179 3.45312 8.53054 3.16335 8.19815 2.92898C7.87003 2.69034 7.50568 2.51136 7.10511 2.39205C6.70455 2.27273 6.28693 2.21307 5.85227 2.21307C5.05966 2.21307 4.34162 2.41335 3.69815 2.81392C3.05895 3.21449 2.54972 3.80469 2.17045 4.58452C1.79545 5.36435 1.60795 6.32102 1.60795 7.45455C1.60795 8.58807 1.79545 9.54474 2.17045 10.3246C2.54972 11.1044 3.05895 11.6946 3.69815 12.0952C4.34162 12.4957 5.05966 12.696 5.85227 12.696C6.28693 12.696 6.70455 12.6364 7.10511 12.517C7.50568 12.3977 7.87003 12.2209 8.19815 11.9865C8.53054 11.7479 8.81179 11.456 9.0419 11.1108C9.27628 10.7614 9.44034 10.3608 9.53409 9.90909H11.1193C11 10.5781 10.7827 11.1768 10.4673 11.7053C10.152 12.2337 9.75994 12.6832 9.29119 13.054C8.82244 13.4205 8.29617 13.6996 7.71236 13.8913C7.13281 14.0831 6.51278 14.179 5.85227 14.179C4.7358 14.179 3.7429 13.9062 2.87358 13.3608C2.00426 12.8153 1.32031 12.0398 0.821733 11.0341C0.323153 10.0284 0.0738637 8.83523 0.0738637 7.45455C0.0738637 6.07386 0.323153 4.88068 0.821733 3.875C1.32031 2.86932 2.00426 2.09375 2.87358 1.5483C3.7429 1.00284 4.7358 0.730113 5.85227 0.730113C6.51278 0.730113 7.13281 0.825994 7.71236 1.01776C8.29617 1.20952 8.82244 1.49077 9.29119 1.86151C9.75994 2.22798 10.152 2.67543 10.4673 3.20384C10.7827 3.72798 11 4.3267 11.1193 5ZM13.6809 14V0.909091H15.2662V12.5938H21.3514V14H13.6809ZM34.3416 7.45455C34.3416 8.83523 34.0923 10.0284 33.5938 11.0341C33.0952 12.0398 32.4112 12.8153 31.5419 13.3608C30.6726 13.9062 29.6797 14.179 28.5632 14.179C27.4467 14.179 26.4538 13.9062 25.5845 13.3608C24.7152 12.8153 24.0313 12.0398 23.5327 11.0341C23.0341 10.0284 22.7848 8.83523 22.7848 7.45455C22.7848 6.07386 23.0341 4.88068 23.5327 3.875C24.0313 2.86932 24.7152 2.09375 25.5845 1.5483C26.4538 1.00284 27.4467 0.730113 28.5632 0.730113C29.6797 0.730113 30.6726 1.00284 31.5419 1.5483C32.4112 2.09375 33.0952 2.86932 33.5938 3.875C34.0923 4.88068 34.3416 6.07386 34.3416 7.45455ZM32.8075 7.45455C32.8075 6.32102 32.6179 5.36435 32.2386 4.58452C31.8636 3.80469 31.3544 3.21449 30.7109 2.81392C30.0717 2.41335 29.3558 2.21307 28.5632 2.21307C27.7706 2.21307 27.0526 2.41335 26.4091 2.81392C25.7699 3.21449 25.2607 3.80469 24.8814 4.58452C24.5064 5.36435 24.3189 6.32102 24.3189 7.45455C24.3189 8.58807 24.5064 9.54474 24.8814 10.3246C25.2607 11.1044 25.7699 11.6946 26.4091 12.0952C27.0526 12.4957 27.7706 12.696 28.5632 12.696C29.3558 12.696 30.0717 12.4957 30.7109 12.0952C31.3544 11.6946 31.8636 11.1044 32.2386 10.3246C32.6179 9.54474 32.8075 8.58807 32.8075 7.45455ZM44.1662 4.18182C44.0895 3.53409 43.7784 3.03125 43.233 2.6733C42.6875 2.31534 42.0185 2.13636 41.2259 2.13636C40.6463 2.13636 40.1392 2.23011 39.7045 2.41761C39.2741 2.60511 38.9375 2.86293 38.6946 3.19105C38.456 3.51918 38.3366 3.89204 38.3366 4.30966C38.3366 4.65909 38.4197 4.95952 38.5859 5.21094C38.7564 5.4581 38.9737 5.66477 39.2379 5.83097C39.5021 5.9929 39.7791 6.12713 40.0689 6.23366C40.3587 6.33594 40.625 6.41903 40.8679 6.48295L42.1974 6.84091C42.5384 6.9304 42.9176 7.05398 43.3352 7.21165C43.7571 7.36932 44.1598 7.58452 44.5433 7.85724C44.9311 8.12571 45.2507 8.47088 45.5021 8.89276C45.7536 9.31463 45.8793 9.83239 45.8793 10.446C45.8793 11.1534 45.6939 11.7926 45.3232 12.3636C44.9567 12.9347 44.4197 13.3885 43.7124 13.7251C43.0092 14.0618 42.1548 14.2301 41.1491 14.2301C40.2116 14.2301 39.3999 14.0788 38.7138 13.7763C38.032 13.4737 37.495 13.0518 37.103 12.5107C36.7152 11.9695 36.4957 11.3409 36.4446 10.625H38.081C38.1236 11.1193 38.2898 11.5284 38.5795 11.8523C38.8736 12.1719 39.2443 12.4105 39.6918 12.5682C40.1435 12.7216 40.6293 12.7983 41.1491 12.7983C41.7543 12.7983 42.2976 12.7003 42.7791 12.5043C43.2607 12.304 43.642 12.027 43.9233 11.6733C44.2045 11.3153 44.3452 10.8977 44.3452 10.4205C44.3452 9.9858 44.2237 9.6321 43.9808 9.35938C43.7379 9.08665 43.4183 8.86506 43.022 8.6946C42.6257 8.52415 42.1974 8.375 41.7372 8.24716L40.1264 7.78693C39.1037 7.4929 38.294 7.07315 37.6974 6.5277C37.1009 5.98224 36.8026 5.26847 36.8026 4.38636C36.8026 3.65341 37.0007 3.0142 37.397 2.46875C37.7976 1.91903 38.3345 1.4929 39.0078 1.19034C39.6854 0.883522 40.4418 0.730113 41.277 0.730113C42.1207 0.730113 42.8707 0.881392 43.527 1.18395C44.1832 1.48224 44.7031 1.89133 45.0866 2.41122C45.4744 2.93111 45.679 3.52131 45.7003 4.18182H44.1662ZM48.4856 14V0.909091H56.3862V2.31534H50.0708V6.73864H55.9771V8.14489H50.0708V12.5938H56.4885V14H48.4856Z" fill="black"/>
</svg>
