<svg width="125" height="22" viewBox="0 0 125 22" fill="none" xmlns="http://www.w3.org/2000/svg">
<path d="M3.17045 4.90909V18H1.58523V4.90909H3.17045ZM7.65288 12.0938V18H6.14435V8.18182H7.60174V9.71591H7.72958C7.95969 9.21733 8.30913 8.81676 8.77788 8.5142C9.24663 8.20739 9.85174 8.05398 10.5932 8.05398C11.258 8.05398 11.8397 8.19034 12.3382 8.46307C12.8368 8.73153 13.2246 9.14062 13.5016 9.69034C13.7786 10.2358 13.9171 10.9261 13.9171 11.7614V18H12.4086V11.8636C12.4086 11.0923 12.2083 10.4915 11.8077 10.0611C11.4071 9.62642 10.8574 9.40909 10.1586 9.40909C9.67702 9.40909 9.24663 9.51349 8.86737 9.7223C8.49237 9.93111 8.1962 10.2358 7.97887 10.6364C7.76154 11.0369 7.65288 11.5227 7.65288 12.0938ZM23.6282 10.3807L22.2731 10.7642C22.1879 10.5384 22.0621 10.3189 21.896 10.1058C21.734 9.88849 21.5124 9.70952 21.2312 9.56889C20.9499 9.42827 20.5898 9.35795 20.1509 9.35795C19.5501 9.35795 19.0494 9.49645 18.6488 9.77344C18.2525 10.0462 18.0543 10.3935 18.0543 10.8153C18.0543 11.1903 18.1907 11.4865 18.4634 11.7038C18.7362 11.9212 19.1623 12.1023 19.7418 12.2472L21.1992 12.6051C22.0771 12.8182 22.7312 13.1442 23.1616 13.5831C23.592 14.0178 23.8072 14.5781 23.8072 15.2642C23.8072 15.8267 23.6452 16.3295 23.3214 16.7727C23.0018 17.2159 22.5543 17.5653 21.979 17.821C21.4038 18.0767 20.7347 18.2045 19.9719 18.2045C18.9705 18.2045 18.1417 17.9872 17.4854 17.5526C16.8292 17.1179 16.4137 16.483 16.239 15.6477L17.6708 15.2898C17.8072 15.8182 18.065 16.2145 18.4442 16.4787C18.8278 16.7429 19.3285 16.875 19.9464 16.875C20.6495 16.875 21.2077 16.7259 21.6211 16.4276C22.0387 16.125 22.2475 15.7628 22.2475 15.3409C22.2475 15 22.1282 14.7145 21.8896 14.4844C21.6509 14.25 21.2844 14.0753 20.7901 13.9602L19.1538 13.5767C18.2546 13.3636 17.5941 13.0334 17.1722 12.5859C16.7546 12.1342 16.5458 11.5696 16.5458 10.892C16.5458 10.3381 16.7013 9.84801 17.0124 9.42188C17.3278 8.99574 17.756 8.66122 18.2972 8.41832C18.8427 8.17543 19.4606 8.05398 20.1509 8.05398C21.1225 8.05398 21.8853 8.26705 22.4393 8.69318C22.9975 9.11932 23.3938 9.68182 23.6282 10.3807ZM26.0779 21.6818V8.18182H27.5353V9.74148H27.7143C27.8251 9.57102 27.9785 9.35369 28.1745 9.08949C28.3748 8.82102 28.6603 8.58239 29.0311 8.37358C29.4061 8.16051 29.9132 8.05398 30.5524 8.05398C31.3791 8.05398 32.1078 8.26065 32.7385 8.67401C33.3691 9.08736 33.8613 9.6733 34.215 10.4318C34.5687 11.1903 34.7456 12.0852 34.7456 13.1165C34.7456 14.1562 34.5687 15.0575 34.215 15.8203C33.8613 16.5788 33.3713 17.1669 32.7449 17.5845C32.1184 17.9979 31.3961 18.2045 30.5779 18.2045C29.9473 18.2045 29.4423 18.1001 29.063 17.8913C28.6838 17.6783 28.3919 17.4375 28.1873 17.169C27.9828 16.8963 27.8251 16.6705 27.7143 16.4915H27.5865V21.6818H26.0779ZM27.5609 13.0909C27.5609 13.8324 27.6696 14.4865 27.8869 15.0533C28.1042 15.6158 28.4217 16.0568 28.8393 16.3764C29.2569 16.6918 29.7683 16.8494 30.3734 16.8494C31.0041 16.8494 31.5304 16.6832 31.9522 16.3509C32.3784 16.0142 32.698 15.5625 32.911 14.9957C33.1284 14.4247 33.237 13.7898 33.237 13.0909C33.237 12.4006 33.1305 11.7784 32.9174 11.2244C32.7086 10.6662 32.3912 10.2251 31.965 9.90128C31.5431 9.57315 31.0126 9.40909 30.3734 9.40909C29.7598 9.40909 29.2441 9.56463 28.8265 9.87571C28.4089 10.1825 28.0936 10.6129 27.8805 11.1669C27.6674 11.7166 27.5609 12.358 27.5609 13.0909ZM37.0467 18V8.18182H38.5552V18H37.0467ZM37.8137 6.54545C37.5197 6.54545 37.2662 6.44531 37.0531 6.24503C36.8443 6.04474 36.7399 5.80398 36.7399 5.52273C36.7399 5.24148 36.8443 5.00071 37.0531 4.80043C37.2662 4.60014 37.5197 4.5 37.8137 4.5C38.1078 4.5 38.3592 4.60014 38.568 4.80043C38.7811 5.00071 38.8876 5.24148 38.8876 5.52273C38.8876 5.80398 38.7811 6.04474 38.568 6.24503C38.3592 6.44531 38.1078 6.54545 37.8137 6.54545ZM41.3182 18V8.18182H42.7756V9.66477H42.8778C43.0568 9.17898 43.3807 8.7848 43.8494 8.48224C44.3182 8.17969 44.8466 8.02841 45.4347 8.02841C45.5455 8.02841 45.6839 8.03054 45.8501 8.0348C46.0163 8.03906 46.142 8.04545 46.2273 8.05398V9.58807C46.1761 9.57528 46.0589 9.55611 45.8757 9.53054C45.6967 9.50071 45.5071 9.4858 45.3068 9.4858C44.8295 9.4858 44.4034 9.58594 44.0284 9.78622C43.6577 9.98224 43.3636 10.255 43.1463 10.6044C42.9332 10.9496 42.8267 11.3437 42.8267 11.7869V18H41.3182ZM50.9047 18.2301C50.2825 18.2301 49.7179 18.1129 49.2108 17.8786C48.7037 17.6399 48.301 17.2969 48.0027 16.8494C47.7044 16.3977 47.5552 15.8523 47.5552 15.2131C47.5552 14.6506 47.666 14.1946 47.8876 13.8452C48.1092 13.4915 48.4054 13.2145 48.7761 13.0142C49.1468 12.8139 49.5559 12.6648 50.0034 12.5668C50.4551 12.4645 50.9089 12.3835 51.3649 12.3239C51.9615 12.2472 52.4451 12.1896 52.8159 12.1513C53.1909 12.1087 53.4636 12.0384 53.6341 11.9403C53.8088 11.8423 53.8961 11.6719 53.8961 11.429V11.3778C53.8961 10.7472 53.7235 10.2571 53.3784 9.90767C53.0375 9.55824 52.5197 9.38352 51.8251 9.38352C51.1049 9.38352 50.5403 9.54119 50.1312 9.85653C49.7221 10.1719 49.4345 10.5085 49.2683 10.8665L47.8365 10.3551C48.0922 9.75852 48.4331 9.29403 48.8592 8.96165C49.2896 8.625 49.7583 8.39062 50.2654 8.25852C50.7768 8.12216 51.2797 8.05398 51.774 8.05398C52.0893 8.05398 52.4515 8.09233 52.8606 8.16903C53.274 8.24148 53.6724 8.39276 54.0559 8.62287C54.4437 8.85298 54.7654 9.20028 55.0211 9.66477C55.2768 10.1293 55.4047 10.7514 55.4047 11.5312V18H53.8961V16.6705H53.8194C53.7172 16.8835 53.5467 17.1115 53.3081 17.3544C53.0694 17.5973 52.752 17.804 52.3556 17.9744C51.9593 18.1449 51.4757 18.2301 50.9047 18.2301ZM51.1348 16.875C51.7314 16.875 52.2342 16.7578 52.6433 16.5234C53.0566 16.2891 53.3677 15.9865 53.5765 15.6158C53.7896 15.245 53.8961 14.8551 53.8961 14.446V13.0653C53.8322 13.142 53.6916 13.2124 53.4743 13.2763C53.2612 13.3359 53.014 13.3892 52.7328 13.4361C52.4558 13.4787 52.1852 13.517 51.921 13.5511C51.661 13.581 51.4501 13.6065 51.2882 13.6278C50.8961 13.679 50.5297 13.7621 50.1887 13.8771C49.8521 13.9879 49.5794 14.1562 49.3706 14.3821C49.166 14.6037 49.0637 14.9062 49.0637 15.2898C49.0637 15.8139 49.2576 16.2102 49.6454 16.4787C50.0375 16.7429 50.5339 16.875 51.1348 16.875ZM62.4279 8.18182V9.46023H57.3398V8.18182H62.4279ZM58.8228 5.82955H60.3313V15.1875C60.3313 15.6136 60.3931 15.9332 60.5167 16.1463C60.6445 16.3551 60.8065 16.4957 61.0025 16.5682C61.2028 16.6364 61.4137 16.6705 61.6353 16.6705C61.8015 16.6705 61.9379 16.6619 62.0444 16.6449C62.1509 16.6236 62.2362 16.6065 62.3001 16.5938L62.6069 17.9489C62.5046 17.9872 62.3619 18.0256 62.1786 18.0639C61.9954 18.1065 61.7631 18.1278 61.4819 18.1278C61.0558 18.1278 60.6381 18.0362 60.229 17.853C59.8242 17.6697 59.4876 17.3906 59.2191 17.0156C58.9549 16.6406 58.8228 16.1676 58.8228 15.5966V5.82955ZM64.6971 18V8.18182H66.2056V18H64.6971ZM65.4641 6.54545C65.1701 6.54545 64.9165 6.44531 64.7035 6.24503C64.4947 6.04474 64.3903 5.80398 64.3903 5.52273C64.3903 5.24148 64.4947 5.00071 64.7035 4.80043C64.9165 4.60014 65.1701 4.5 65.4641 4.5C65.7582 4.5 66.0096 4.60014 66.2184 4.80043C66.4315 5.00071 66.538 5.24148 66.538 5.52273C66.538 5.80398 66.4315 6.04474 66.2184 6.24503C66.0096 6.44531 65.7582 6.54545 65.4641 6.54545ZM72.9572 18.2045C72.0708 18.2045 71.2931 17.9936 70.6241 17.5717C69.9593 17.1499 69.4395 16.5597 69.0645 15.8011C68.6937 15.0426 68.5083 14.1562 68.5083 13.142C68.5083 12.1193 68.6937 11.2266 69.0645 10.4638C69.4395 9.70099 69.9593 9.10866 70.6241 8.68679C71.2931 8.26491 72.0708 8.05398 72.9572 8.05398C73.8436 8.05398 74.6191 8.26491 75.2839 8.68679C75.9529 9.10866 76.4728 9.70099 76.8436 10.4638C77.2186 11.2266 77.4061 12.1193 77.4061 13.142C77.4061 14.1562 77.2186 15.0426 76.8436 15.8011C76.4728 16.5597 75.9529 17.1499 75.2839 17.5717C74.6191 17.9936 73.8436 18.2045 72.9572 18.2045ZM72.9572 16.8494C73.6305 16.8494 74.1845 16.6768 74.6191 16.3317C75.0538 15.9865 75.3755 15.5327 75.5843 14.9702C75.7931 14.4077 75.8976 13.7983 75.8976 13.142C75.8976 12.4858 75.7931 11.8743 75.5843 11.3075C75.3755 10.7408 75.0538 10.2827 74.6191 9.93324C74.1845 9.58381 73.6305 9.40909 72.9572 9.40909C72.2839 9.40909 71.7299 9.58381 71.2953 9.93324C70.8606 10.2827 70.5389 10.7408 70.3301 11.3075C70.1213 11.8743 70.0169 12.4858 70.0169 13.142C70.0169 13.7983 70.1213 14.4077 70.3301 14.9702C70.5389 15.5327 70.8606 15.9865 71.2953 16.3317C71.7299 16.6768 72.2839 16.8494 72.9572 16.8494ZM81.2173 12.0938V18H79.7088V8.18182H81.1662V9.71591H81.294C81.5241 9.21733 81.8736 8.81676 82.3423 8.5142C82.8111 8.20739 83.4162 8.05398 84.1577 8.05398C84.8224 8.05398 85.4041 8.19034 85.9027 8.46307C86.4013 8.73153 86.7891 9.14062 87.0661 9.69034C87.343 10.2358 87.4815 10.9261 87.4815 11.7614V18H85.973V11.8636C85.973 11.0923 85.7727 10.4915 85.3722 10.0611C84.9716 9.62642 84.4219 9.40909 83.723 9.40909C83.2415 9.40909 82.8111 9.51349 82.4318 9.7223C82.0568 9.93111 81.7607 10.2358 81.5433 10.6364C81.326 11.0369 81.2173 11.5227 81.2173 12.0938ZM97.6017 8.18182C97.525 7.53409 97.214 7.03125 96.6685 6.6733C96.123 6.31534 95.454 6.13636 94.6614 6.13636C94.0819 6.13636 93.5748 6.23011 93.1401 6.41761C92.7097 6.60511 92.373 6.86293 92.1301 7.19105C91.8915 7.51918 91.7722 7.89204 91.7722 8.30966C91.7722 8.65909 91.8553 8.95952 92.0215 9.21094C92.1919 9.4581 92.4093 9.66477 92.6735 9.83097C92.9377 9.9929 93.2147 10.1271 93.5044 10.2337C93.7942 10.3359 94.0605 10.419 94.3034 10.483L95.633 10.8409C95.9739 10.9304 96.3532 11.054 96.7708 11.2116C97.1926 11.3693 97.5953 11.5845 97.9789 11.8572C98.3667 12.1257 98.6863 12.4709 98.9377 12.8928C99.1891 13.3146 99.3148 13.8324 99.3148 14.446C99.3148 15.1534 99.1294 15.7926 98.7587 16.3636C98.3922 16.9347 97.8553 17.3885 97.1479 17.7251C96.4448 18.0618 95.5904 18.2301 94.5847 18.2301C93.6472 18.2301 92.8354 18.0788 92.1493 17.7763C91.4675 17.4737 90.9306 17.0518 90.5385 16.5107C90.1507 15.9695 89.9313 15.3409 89.8801 14.625H91.5165C91.5591 15.1193 91.7253 15.5284 92.0151 15.8523C92.3091 16.1719 92.6799 16.4105 93.1273 16.5682C93.579 16.7216 94.0648 16.7983 94.5847 16.7983C95.1898 16.7983 95.7331 16.7003 96.2147 16.5043C96.6962 16.304 97.0776 16.027 97.3588 15.6733C97.6401 15.3153 97.7807 14.8977 97.7807 14.4205C97.7807 13.9858 97.6593 13.6321 97.4164 13.3594C97.1735 13.0866 96.8539 12.8651 96.4576 12.6946C96.0613 12.5241 95.633 12.375 95.1728 12.2472L93.562 11.7869C92.5392 11.4929 91.7296 11.0732 91.133 10.5277C90.5364 9.98224 90.2381 9.26847 90.2381 8.38636C90.2381 7.65341 90.4363 7.0142 90.8326 6.46875C91.2331 5.91903 91.7701 5.4929 92.4434 5.19034C93.1209 4.88352 93.8773 4.73011 94.7125 4.73011C95.5563 4.73011 96.3063 4.88139 96.9625 5.18395C97.6188 5.48224 98.1387 5.89133 98.5222 6.41122C98.91 6.93111 99.1145 7.52131 99.1358 8.18182H97.6017ZM101.717 18V8.18182H103.225V18H101.717ZM102.484 6.54545C102.19 6.54545 101.936 6.44531 101.723 6.24503C101.514 6.04474 101.41 5.80398 101.41 5.52273C101.41 5.24148 101.514 5.00071 101.723 4.80043C101.936 4.60014 102.19 4.5 102.484 4.5C102.778 4.5 103.029 4.60014 103.238 4.80043C103.451 5.00071 103.558 5.24148 103.558 5.52273C103.558 5.80398 103.451 6.04474 103.238 6.24503C103.029 6.44531 102.778 6.54545 102.484 6.54545ZM110.258 8.18182V9.46023H105.17V8.18182H110.258ZM106.653 5.82955H108.161V15.1875C108.161 15.6136 108.223 15.9332 108.347 16.1463C108.475 16.3551 108.637 16.4957 108.833 16.5682C109.033 16.6364 109.244 16.6705 109.465 16.6705C109.632 16.6705 109.768 16.6619 109.874 16.6449C109.981 16.6236 110.066 16.6065 110.13 16.5938L110.437 17.9489C110.335 17.9872 110.192 18.0256 110.009 18.0639C109.825 18.1065 109.593 18.1278 109.312 18.1278C108.886 18.1278 108.468 18.0362 108.059 17.853C107.654 17.6697 107.318 17.3906 107.049 17.0156C106.785 16.6406 106.653 16.1676 106.653 15.5966V5.82955ZM116.538 18.2045C115.592 18.2045 114.776 17.9957 114.09 17.5781C113.408 17.1562 112.882 16.5682 112.511 15.8139C112.145 15.0554 111.961 14.1733 111.961 13.1676C111.961 12.1619 112.145 11.2756 112.511 10.5085C112.882 9.73722 113.398 9.13636 114.058 8.70597C114.723 8.27131 115.498 8.05398 116.385 8.05398C116.896 8.05398 117.401 8.1392 117.9 8.30966C118.398 8.48011 118.852 8.7571 119.261 9.14062C119.67 9.51989 119.996 10.0227 120.239 10.6491C120.482 11.2756 120.604 12.0469 120.604 12.9631V13.6023H113.035V12.2983H119.069C119.069 11.7443 118.959 11.25 118.737 10.8153C118.52 10.3807 118.209 10.0376 117.804 9.78622C117.403 9.5348 116.93 9.40909 116.385 9.40909C115.784 9.40909 115.264 9.55824 114.825 9.85653C114.39 10.1506 114.056 10.5341 113.822 11.0071C113.587 11.4801 113.47 11.9872 113.47 12.5284V13.3977C113.47 14.1392 113.598 14.7678 113.854 15.2834C114.113 15.7947 114.474 16.1847 114.934 16.4531C115.394 16.7173 115.929 16.8494 116.538 16.8494C116.934 16.8494 117.292 16.794 117.612 16.6832C117.936 16.5682 118.215 16.3977 118.449 16.1719C118.684 15.9418 118.865 15.6562 118.993 15.3153L120.45 15.7244C120.297 16.2188 120.039 16.6534 119.677 17.0284C119.314 17.3991 118.867 17.6889 118.334 17.8977C117.802 18.1023 117.203 18.2045 116.538 18.2045Z" fill="black"/>
</svg>
