<svg width="62" height="15" viewBox="0 0 62 15" fill="none" xmlns="http://www.w3.org/2000/svg">
<path d="M0.585227 0.909091H2.47727L6.92614 11.7756H7.07955L11.5284 0.909091H13.4205V14H11.9375V4.05398H11.8097L7.71875 14H6.28693L2.19602 4.05398H2.06818V14H0.585227V0.909091ZM20.5108 14.2045C19.5648 14.2045 18.7488 13.9957 18.0627 13.5781C17.3809 13.1562 16.8546 12.5682 16.4838 11.8139C16.1174 11.0554 15.9341 10.1733 15.9341 9.16761C15.9341 8.16193 16.1174 7.27557 16.4838 6.50852C16.8546 5.73722 17.3702 5.13636 18.0307 4.70597C18.6955 4.27131 19.4711 4.05398 20.3574 4.05398C20.8688 4.05398 21.3738 4.1392 21.8723 4.30966C22.3709 4.48011 22.8248 4.7571 23.2338 5.14062C23.6429 5.51989 23.9689 6.02273 24.2118 6.64915C24.4547 7.27557 24.5762 8.04687 24.5762 8.96307V9.60227H17.008V8.2983H23.0421C23.0421 7.74432 22.9313 7.25 22.7097 6.81534C22.4924 6.38068 22.1813 6.03764 21.7765 5.78622C21.3759 5.5348 20.9029 5.40909 20.3574 5.40909C19.7566 5.40909 19.2367 5.55824 18.7978 5.85653C18.3631 6.15057 18.0286 6.53409 17.7942 7.0071C17.5598 7.48011 17.4426 7.98722 17.4426 8.52841V9.39773C17.4426 10.1392 17.5705 10.7678 17.8262 11.2834C18.0861 11.7947 18.4462 12.1847 18.9064 12.4531C19.3667 12.7173 19.9015 12.8494 20.5108 12.8494C20.9071 12.8494 21.2651 12.794 21.5847 12.6832C21.9086 12.5682 22.1877 12.3977 22.4221 12.1719C22.6564 11.9418 22.8375 11.6562 22.9654 11.3153L24.4228 11.7244C24.2694 12.2188 24.0115 12.6534 23.6493 13.0284C23.2871 13.3991 22.8397 13.6889 22.307 13.8977C21.7743 14.1023 21.1756 14.2045 20.5108 14.2045ZM28.3794 8.09375V14H26.8709V4.18182H28.3283V5.71591H28.4561C28.6863 5.21733 29.0357 4.81676 29.5044 4.5142C29.9732 4.20739 30.5783 4.05398 31.3198 4.05398C31.9846 4.05398 32.5662 4.19034 33.0648 4.46307C33.5634 4.73153 33.9512 5.14062 34.2282 5.69034C34.5051 6.2358 34.6436 6.92614 34.6436 7.76136V14H33.1351V7.86364C33.1351 7.09233 32.9348 6.49148 32.5343 6.06108C32.1337 5.62642 31.584 5.40909 30.8851 5.40909C30.4036 5.40909 29.9732 5.51349 29.5939 5.7223C29.2189 5.93111 28.9228 6.2358 28.7054 6.63636C28.4881 7.03693 28.3794 7.52273 28.3794 8.09375ZM43.5877 9.9858V4.18182H45.0962V14H43.5877V12.3381H43.4854C43.2553 12.8366 42.8974 13.2607 42.4116 13.6101C41.9258 13.9553 41.3121 14.1278 40.5707 14.1278C39.957 14.1278 39.4116 13.9936 38.9343 13.7251C38.457 13.4524 38.082 13.0433 37.8093 12.4979C37.5366 11.9482 37.4002 11.2557 37.4002 10.4205V4.18182H38.9087V10.3182C38.9087 11.0341 39.109 11.6051 39.5096 12.0312C39.9144 12.4574 40.43 12.6705 41.0565 12.6705C41.4315 12.6705 41.8129 12.5746 42.2006 12.3828C42.5927 12.1911 42.9208 11.897 43.185 11.5007C43.4535 11.1044 43.5877 10.5994 43.5877 9.9858ZM56.7569 13.1051V4.66761H58.1887V13.1051H56.7569ZM53.2541 9.60227V8.17045H61.6916V9.60227H53.2541Z" fill="black"/>
</svg>
